<?xml version="1.0" encoding="utf-8"?>
<!-- Generator: Adobe Illustrator 17.1.0, SVG Export Plug-In . SVG Version: 6.00 Build 0)  -->
<!DOCTYPE svg PUBLIC "-//W3C//DTD SVG 1.1//EN" "http://www.w3.org/Graphics/SVG/1.1/DTD/svg11.dtd">
<svg version="1.1" id="Layer_1" xmlns="http://www.w3.org/2000/svg" xmlns:xlink="http://www.w3.org/1999/xlink" x="0px" y="0px"
	 viewBox="0 0 100 100" enable-background="new 0 0 100 100" xml:space="preserve">
<g>
	<path d="M36.664,21.726c2.789,0,4.881,1.072,4.881,1.072c0-2.413-0.535-3.809-3.433-3.809c-1.717,0-4.613,0.376-6.222,0.858
		c-0.965,0.323-1.396-0.376-1.503-1.286l-0.59-3.809c-0.162-1.072,0.428-1.555,0.965-1.717c0.59-0.214,4.936-0.804,8.262-0.804
		c7.67,0,10.352,3.11,10.352,10.459v13.68c0,0.642-0.59,1.179-1.179,1.179h-2.63c-0.376,0-0.804-0.107-1.125-0.804l-0.806-1.664
		c-1.503,1.289-3.595,3.058-7.511,3.058c-4.881,0-8.583-3.219-8.583-8.153C27.543,25.214,31.031,21.726,36.664,21.726z
		 M38.273,32.133c1.503,0,2.789-1.234,2.789-2.734c0-1.45-1.286-2.737-2.789-2.737c-1.503,0-2.737,1.286-2.737,2.737
		C35.537,30.899,36.771,32.133,38.273,32.133z"/>
	<path d="M56.795,20.117h-2.04c-0.59,0-1.072-0.535-1.072-1.179v-4.988c0-0.699,0.483-1.182,1.072-1.182h2.04V5.901
		c0-0.644,0.535-1.179,1.179-1.179h5.901c0.59,0,1.072,0.535,1.072,1.179v6.866h4.99c0.644,0,1.182,0.483,1.182,1.182v4.988
		c0,0.644-0.537,1.179-1.182,1.179h-4.99v8.638c0,1.179,0.592,1.717,1.664,1.717c0.858,0,2.468-0.376,3.058-0.537
		c0.646-0.162,1.236,0.107,1.393,0.751l1.075,4.667c0.162,0.751-0.105,1.072-0.804,1.396c-1.664,0.697-4.453,1.393-7.083,1.393
		c-4.722,0-7.456-3.003-7.456-8.635V20.117z"/>
	<path d="M76.335,1.182C76.335,0.59,76.873,0,77.515,0h5.792c0.646,0,1.184,0.59,1.184,1.182v12.82
		c1.717-1.179,3.433-1.769,5.255-1.769c7.779,0,10.247,5.685,10.247,12.551v11.588c0,0.642-0.59,1.179-1.179,1.179h-5.796
		c-0.695,0-1.179-0.537-1.179-1.179V24.677c0-2.789-1.018-4.829-3.7-4.829c-1.987,0-3.647,1.075-3.647,4.829v11.695
		c0,0.804-0.271,1.179-1.341,1.179h-5.635c-0.642,0-1.179-0.537-1.179-1.179V1.182z"/>
	<path id="p" d="M0.008,1.02c0-0.537,0.43-1.02,1.02-1.02h12.929c7.08,0,12.016,5.366,12.016,11.857c0,6.65-4.936,12.069-11.964,12.069
		H8.377v12.606c0,0.537-0.483,1.02-1.018,1.02H1.028c-0.59,0-1.02-0.483-1.02-1.02V1.02z M13.795,16.094
		c2.306,0,3.916-1.824,3.916-4.237c0-2.254-1.61-3.97-3.916-3.97H8.377v8.207H13.795z"/>
</g>
</svg>
