<?xml version="1.0" encoding="utf-8"?>
<!-- Generator: Adobe Illustrator 17.1.0, SVG Export Plug-In . SVG Version: 6.00 Build 0)  -->
<!DOCTYPE svg PUBLIC "-//W3C//DTD SVG 1.1//EN" "http://www.w3.org/Graphics/SVG/1.1/DTD/svg11.dtd">
<svg version="1.1" xmlns="http://www.w3.org/2000/svg" xmlns:xlink="http://www.w3.org/1999/xlink" x="0" y="0" width="40" height="40"
	 viewBox="0 0 40 40">
<g id="weather">
<path id="clear-day" d="M31.989,17.368l-1.101-0.217c-2.269-0.447-2.698-2.057-0.959-3.577l0.845-0.738
	c1.739-1.521,1.375-2.154-0.812-1.408l-1.065,0.361c-2.186,0.745-3.363-0.434-2.617-2.619l0.363-1.062
	c0.745-2.187,0.111-2.553-1.408-0.812l-0.74,0.847c-1.521,1.738-3.131,1.307-3.57-0.959l-0.226-1.103
	c-0.445-2.267-1.184-2.267-1.625,0l-0.217,1.101C18.411,9.448,16.8,9.879,15.28,8.141l-0.738-0.846
	c-1.521-1.738-2.155-1.374-1.409,0.813l0.362,1.062c0.745,2.186-0.434,3.364-2.619,2.619l-1.062-0.362
	c-2.187-0.746-2.551-0.112-0.813,1.408l0.846,0.738c1.738,1.521,1.307,3.13-0.959,3.577l-1.102,0.217
	c-2.267,0.447-2.267,1.179,0,1.626l1.102,0.219c2.266,0.445,2.697,2.056,0.959,3.576L9,23.528c-1.739,1.52-1.373,2.147,0.813,1.402
	l1.062-0.359c2.186-0.744,3.364,0.434,2.619,2.613l-0.362,1.067c-0.746,2.187-0.112,2.552,1.408,0.812l0.738-0.845
	c1.521-1.739,3.131-1.312,3.577,0.959l0.219,1.104c0.445,2.269,1.178,2.269,1.625,0l0.215-1.1c0.447-2.268,2.059-2.698,3.578-0.959
	l0.74,0.845c1.521,1.739,2.149,1.374,1.403-0.812l-0.358-1.065c-0.746-2.186,0.433-3.364,2.612-2.618l1.062,0.364
	c2.188,0.746,2.555,0.111,0.812-1.407l-0.845-0.74c-1.739-1.521-1.312-3.131,0.959-3.573l1.103-0.222
	C34.255,18.546,34.255,17.815,31.989,17.368z M19.887,25.785c-4.2,0-7.603-3.397-7.603-7.604s3.403-7.603,7.603-7.603
	s7.604,3.403,7.604,7.603S24.087,25.785,19.887,25.785z M19.887,11.978c-3.421,0-6.203,2.782-6.203,6.203s2.782,6.203,6.203,6.203
	s6.203-2.782,6.203-6.203S23.308,11.978,19.887,11.978z"/>
<path id="rain1_1_" d="M66.253,13.935c-1.035-1.985-3.07-3.236-5.348-3.236c-0.526,0-1.045,0.067-1.547,0.2
	c-1.39-1.809-3.517-2.868-5.83-2.868c-3.513,0-6.525,2.523-7.219,5.891c-2.151,0.313-3.809,2.17-3.809,4.406
	c0,2.455,1.998,4.453,4.453,4.453h6.017c0.259-0.657,0.562-1.346,0.87-2h-6.887c-1.353,0-2.453-1.102-2.453-2.453
	s1.098-2.45,2.44-2.45h0.004l1.154,0.075l0.077-0.976c0.219-2.773,2.57-4.945,5.352-4.945c1.882,0,3.595,0.964,4.583,2.578
	l0.447,0.731l0.791-0.33c0.489-0.207,1.019-0.311,1.557-0.311c1.664,0,3.137,1,3.752,2.549l0.248,0.623l0.67,0.008
	c1.338,0.016,2.426,1.114,2.426,2.449c0,1.353-1.102,2.453-2.455,2.453h-6.884c0.308,0.655,0.61,1.343,0.87,2h6.014
	c2.456,0,4.455-1.998,4.455-4.453C70.001,16.126,68.371,14.277,66.253,13.935z M53.275,25.356c0,1.643,1.333,2.976,2.976,2.976
	s2.977-1.333,2.977-2.976c0-1.644-2.977-7.132-2.977-7.132S53.275,23.715,53.275,25.356z"/>
<path id="rain3_3_" d="M89.639,25.356c0,1.643,1.333,2.976,2.976,2.976s2.977-1.333,2.977-2.976
	c0-1.644-2.977-7.132-2.977-7.132S89.639,23.715,89.639,25.356z M82.514,28.295c0,1.646,1.333,2.979,2.976,2.979
	s2.976-1.333,2.976-2.979c0-1.644-2.976-7.133-2.976-7.133S82.514,26.651,82.514,28.295z M86.42,20.781
	c0.198,0.366,0.587,1.104,1.029,2h1.885c0.259-0.657,0.562-1.346,0.87-2H86.42z M102.617,13.935
	c-1.035-1.985-3.07-3.236-5.348-3.236c-0.526,0-1.045,0.067-1.547,0.2c-1.39-1.809-3.517-2.868-5.83-2.868
	c-3.513,0-6.525,2.523-7.219,5.891c-2.151,0.313-3.809,2.17-3.809,4.406c0,2.455,1.998,4.453,4.453,4.453h0.213
	c0.441-0.895,0.831-1.632,1.029-2h-1.242c-1.353,0-2.453-1.102-2.453-2.453s1.098-2.45,2.44-2.45h0.004l1.154,0.075l0.077-0.976
	c0.219-2.773,2.57-4.945,5.352-4.945c1.882,0,3.595,0.964,4.583,2.578l0.447,0.731l0.791-0.33c0.489-0.207,1.019-0.311,1.557-0.311
	c1.664,0,3.137,1,3.752,2.549l0.248,0.623l0.67,0.008c1.338,0.016,2.426,1.114,2.426,2.449c0,1.353-1.102,2.453-2.455,2.453h-1.427
	c0.198,0.368,0.589,1.104,1.03,2h0.396c2.456,0,4.455-1.998,4.455-4.453C106.365,16.126,104.735,14.277,102.617,13.935z
	 M98.622,20.781h-3.596c0.308,0.654,0.61,1.343,0.868,2h1.699C98.035,21.885,98.426,21.148,98.622,20.781z M96.577,28.295
	c0,1.646,1.333,2.979,2.976,2.979c1.646,0,2.979-1.333,2.979-2.979c0-1.644-2.979-7.133-2.979-7.133S96.577,26.651,96.577,28.295z"
	/>
<path id="partly-cloudy_1_" d="M138.269,22.781h-18.593c-2.455,0-4.453-1.998-4.453-4.453
	c0-2.236,1.657-4.093,3.809-4.406c0.694-3.368,3.706-5.891,7.219-5.891c2.313,0,4.44,1.059,5.833,2.869
	c0.502-0.133,1.021-0.2,1.545-0.2c2.277,0,4.312,1.251,5.354,3.236c2.118,0.342,3.748,2.188,3.748,4.393
	C142.724,20.783,140.725,22.781,138.269,22.781z M119.663,15.878c-1.342,0-2.44,1.099-2.44,2.45c0,1.354,1.1,2.453,2.453,2.453
	h18.593c1.354,0,2.455-1.102,2.455-2.453c0-1.334-1.088-2.433-2.426-2.449l-0.67-0.008l-0.248-0.623
	c-0.615-1.548-2.088-2.549-3.752-2.549c-0.538,0-1.062,0.104-1.557,0.311l-0.791,0.33l-0.447-0.731
	c-0.987-1.614-2.7-2.578-4.583-2.578c-2.782,0-5.133,2.172-5.352,4.945l-0.077,0.976l-1.154-0.075
	C119.666,15.878,119.665,15.878,119.663,15.878z"/>
<path id="thunder_1_" d="M174.633,14.15c-1.035-1.985-3.07-3.236-5.348-3.236c-0.526,0-1.045,0.067-1.547,0.2
	c-1.39-1.809-3.517-2.868-5.83-2.868c-3.513,0-6.525,2.523-7.219,5.891c-2.151,0.313-3.809,2.17-3.809,4.406
	c0,2.455,1.998,4.453,4.453,4.453h2.725l-0.102-0.102c-0.228-0.229-0.332-0.551-0.28-0.867c0.052-0.317,0.252-0.592,0.54-0.734
	l0.594-0.297h-3.477c-1.353,0-2.453-1.102-2.453-2.453s1.098-2.45,2.44-2.45h0.004l1.154,0.075l0.077-0.976
	c0.219-2.773,2.57-4.945,5.352-4.945c1.882,0,3.595,0.964,4.583,2.578l0.447,0.731l0.791-0.33c0.489-0.207,1.019-0.311,1.557-0.311
	c1.664,0,3.137,1,3.752,2.549l0.248,0.623l0.67,0.008c1.338,0.016,2.426,1.114,2.426,2.449c0,1.353-1.102,2.453-2.455,2.453h-6.09
	l-1.191,1.19l0.812,0.81h6.473c2.456,0,4.455-1.998,4.455-4.453C178.381,16.341,176.751,14.492,174.633,14.15z M171.797,15.621
	l-13.133,6.566l3.283,3.283l-6.566,6.567l13.133-6.566l-3.283-3.284L171.797,15.621z"/>
<path id="drizzle" d="M211.71,13.936c-1.04-1.985-3.075-3.236-5.353-3.236c-0.523,0-1.043,0.067-1.545,0.2
	c-1.392-1.81-3.519-2.869-5.832-2.869c-3.513,0-6.525,2.523-7.219,5.891c-2.152,0.313-3.809,2.17-3.809,4.406
	c0,2.455,1.998,4.453,4.453,4.453h18.593c2.456,0,4.455-1.998,4.46-4.452C215.458,16.124,213.828,14.278,211.71,13.936z
	 M210.998,20.781h-18.593c-1.353,0-2.453-1.1-2.453-2.453c0-1.351,1.098-2.45,2.44-2.45c0.002,0,0.003,0,0.004-0.001l1.154,0.075
	l0.077-0.976c0.219-2.773,2.57-4.945,5.352-4.945c1.883,0,3.596,0.964,4.583,2.578l0.447,0.731l0.791-0.33
	c0.493-0.207,1.019-0.311,1.557-0.311c1.664,0,3.137,1.001,3.752,2.549l0.248,0.623l0.67,0.008c1.338,0.016,2.426,1.115,2.426,2.449
	C213.453,19.679,212.351,20.781,210.998,20.781z M190.203,26.656c0,0.553,0.448,1,1,1s1-0.447,1-1s-1-2.625-1-2.625
	S190.203,26.103,190.203,26.656z M195.828,29.656c0,0.553,0.448,1,1,1s1-0.447,1-1s-1-2.625-1-2.625S195.828,29.103,195.828,29.656z
	 M200.703,26.656c0,0.553,0.447,1,1,1c0.553,0,1-0.447,1-1s-1-2.625-1-2.625S200.703,26.103,200.703,26.656z M205.578,29.656
	c0,0.553,0.447,1,1,1s1-0.447,1-1s-1-2.625-1-2.625S205.578,29.103,205.578,29.656z M211.203,26.656c0,0.553,0.447,1,1,1
	s1-0.447,1-1s-1-2.625-1-2.625S211.203,26.103,211.203,26.656z"/>
<path id="hail1-cloudy" d="M238.068,21.453c-1.605,0-2.906,1.301-2.906,2.906s1.301,2.906,2.906,2.906
	c1.605,0,2.906-1.301,2.906-2.906S239.673,21.453,238.068,21.453z M250.384,15.291c0.513-0.859,0.809-1.86,0.809-2.932
	c0-3.17-2.579-5.75-5.75-5.75c-0.037,0-0.073,0-0.109,0.002c-1.229-1.868-3.312-3.002-5.578-3.002c-1.137,0-2.233,0.285-3.224,0.829
	c-1.118-0.584-2.357-0.891-3.62-0.891c-4.325-0.001-7.844,3.518-7.844,7.843c0,1.326,0.343,2.568,0.928,3.663
	c-1.021,0.816-1.678,2.071-1.678,3.478c0,2.455,1.998,4.453,4.453,4.453h5.654c0.322-0.852,0.932-1.552,1.712-2h-7.367
	c-1.353,0-2.453-1.102-2.453-2.453s1.098-2.45,2.44-2.45h0.004l1.154,0.075l0.077-0.976c0.219-2.773,2.57-4.945,5.352-4.945
	c1.882,0,3.595,0.964,4.583,2.578l0.447,0.731l0.791-0.33c0.489-0.207,1.019-0.311,1.557-0.311c1.664,0,3.137,1,3.752,2.549
	l0.248,0.623l0.67,0.008c1.338,0.016,2.426,1.114,2.426,2.449c0,1.353-1.102,2.453-2.455,2.453H240c0.78,0.448,1.396,1.147,1.713,2
	h5.65c2.456,0,4.455-1.998,4.455-4.453C251.818,17.253,251.257,16.105,250.384,15.291z M248.629,14.281
	c-0.184-0.055-0.365-0.111-0.559-0.143c-1.035-1.985-3.07-3.236-5.348-3.236c-0.526,0-1.045,0.067-1.547,0.2
	c-1.39-1.809-3.517-2.868-5.83-2.868c-3.513,0-6.525,2.523-7.219,5.891c-0.112,0.016-0.216,0.054-0.326,0.078
	c-0.461-0.836-0.732-1.792-0.732-2.813c0-3.222,2.622-5.844,5.844-5.844c1.096,0,2.169,0.311,3.104,0.9l0.555,0.35l0.542-0.371
	c0.781-0.534,1.695-0.816,2.643-0.816c1.752,0,3.35,0.968,4.156,2.527l0.325,0.625l0.798-0.11c0.135-0.019,0.268-0.042,0.407-0.042
	c2.067,0,3.75,1.682,3.75,3.75C249.193,13.068,248.975,13.718,248.629,14.281z"/>
<path id="wind" d="M284.956,4.901h-0.005l-9.314-1.371c-0.095-0.023-0.19-0.037-0.286-0.042l-5.167-0.76
	c-0.107-0.026-0.217-0.042-0.329-0.048L269.6,2.642l-0.055,0.048c-0.824,0.095-1.546,0.745-2.081,1.783l-4.388,3.762
	c-0.103-0.035-0.209-0.065-0.323-0.065c-0.552,0-1,0.448-1,1v19h2V10.686l3.711,3.181c0.534,1.04,1.257,1.688,2.082,1.784
	l0.055,0.046l0.244-0.035c0.117-0.006,0.231-0.023,0.344-0.051l5.117-0.754c0.119-0.004,0.234-0.022,0.35-0.051l9.225-1.36
	c1.271,0,2.229-1.837,2.229-4.274C287.107,6.736,286.151,4.901,284.956,4.901z M266.805,11.985l-3.052-2.616V9.17
	c0-0.06-0.024-0.112-0.034-0.169l3.086-2.646c-0.193,0.844-0.302,1.793-0.302,2.815S266.612,11.141,266.805,11.985z M275.298,13.849
	l-3.554,0.523c0.774-1.166,1.259-3.024,1.259-5.202c0-2.179-0.485-4.036-1.26-5.202l3.539,0.519c0.879,0.043,1.85,2.028,1.85,4.683
	C277.132,11.81,276.173,13.783,275.298,13.849z M280.794,13.04l-2.729,0.401c0.611-1,1-2.505,1-4.271
	c0-1.769-0.39-3.274-1.002-4.275l2.701,0.396c0.629,0.017,1.495,1.487,1.495,3.878C282.261,11.524,281.421,12.98,280.794,13.04z
	 M284.805,12.45l-1.374,0.202c0.471-0.852,0.762-2.071,0.762-3.482c0-1.414-0.291-2.635-0.767-3.487l1.451,0.213
	c0.501,0,1.229,1.275,1.229,3.274S285.379,12.444,284.805,12.45z"/>
<path id="fog" d="M301.498,20.017h18.593c2.456,0,4.455-1.998,4.455-4.453c0-2.202-1.63-4.051-3.748-4.393
	c-1.035-1.985-3.07-3.236-5.348-3.236c-0.526,0-1.045,0.067-1.547,0.2c-1.39-1.809-3.517-2.868-5.83-2.868
	c-3.513,0-6.525,2.523-7.219,5.891c-2.151,0.313-3.809,2.17-3.809,4.406C297.046,18.019,299.043,20.017,301.498,20.017z
	 M301.485,13.114h0.004l1.154,0.075l0.077-0.976c0.219-2.773,2.57-4.945,5.352-4.945c1.882,0,3.595,0.964,4.583,2.578l0.447,0.731
	l0.791-0.33c0.489-0.207,1.019-0.311,1.557-0.311c1.664,0,3.137,1,3.752,2.549l0.248,0.623l0.67,0.008
	c1.338,0.016,2.426,1.114,2.426,2.449c0,1.353-1.102,2.453-2.455,2.453h-18.593c-1.353,0-2.453-1.101-2.453-2.453
	C299.046,14.213,300.144,13.114,301.485,13.114z M320.091,21.017h-18.593c-1.829,0-3.446-0.908-4.436-2.294
	c0.086,2.38,2.036,4.294,4.437,4.294h18.592c2.402,0,4.354-1.915,4.439-4.296C323.54,20.108,321.921,21.017,320.091,21.017z
	 M320.091,24.017h-18.593c-1.829,0-3.446-0.908-4.436-2.294c0.086,2.38,2.036,4.294,4.437,4.294h18.592
	c2.402,0,4.354-1.915,4.439-4.296C323.54,23.108,321.921,24.017,320.091,24.017z M320.091,27.017h-18.593
	c-1.829,0-3.446-0.908-4.436-2.294c0.086,2.38,2.036,4.294,4.437,4.294h18.592c2.402,0,4.354-1.915,4.439-4.296
	C323.54,26.108,321.921,27.017,320.091,27.017z"/>
</g>
</svg>
